<?xml version="1.0" standalone="no"?>
<!DOCTYPE svg PUBLIC "-//W3C//DTD SVG 20010904//EN"
 "http://www.w3.org/TR/2001/REC-SVG-20010904/DTD/svg10.dtd">
<svg version="1.0" xmlns="http://www.w3.org/2000/svg"
 width="700.000000pt" height="700.000000pt" viewBox="0 0 700.000000 700.000000"
 preserveAspectRatio="xMidYMid meet">
<metadata>
Created by potrace 1.14, written by Peter Selinger 2001-2017
</metadata>
<g transform="translate(0.000000,700.000000) scale(0.100000,-0.100000)"
fill="#000000" stroke="none">
<path d="M3170 6509 c-441 -38 -883 -178 -1165 -367 -167 -113 -315 -268 -450
-472 -178 -270 -273 -590 -320 -1076 -8 -87 -15 -187 -15 -224 l0 -68 -37 -7
c-21 -4 -72 -18 -115 -32 -58 -19 -78 -30 -82 -47 -14 -53 -1 -505 24 -811 16
-192 45 -278 97 -291 17 -5 23 -12 20 -23 -3 -9 -64 -167 -137 -351 -315 -799
-528 -1377 -565 -1532 l-13 -58 40 -34 c52 -45 280 -161 438 -224 1277 -507
3216 -546 4810 -97 402 113 791 268 864 344 l28 29 -17 59 c-57 202 -294 791
-661 1647 -85 198 -153 360 -152 361 2 1 23 8 47 16 35 11 46 20 52 42 25 93
15 938 -11 987 -11 21 -134 74 -210 92 -28 6 -55 19 -59 27 -5 9 -11 63 -15
121 -20 298 -114 817 -181 996 -117 310 -410 602 -780 778 -350 167 -953 257
-1435 215z m750 -216 c280 -40 546 -137 747 -269 154 -102 373 -331 463 -485
45 -77 87 -196 74 -209 -5 -5 -38 2 -79 17 -154 56 -205 69 -215 53 -12 -18
-13 -70 -2 -88 5 -7 60 -34 123 -61 174 -73 195 -86 208 -122 20 -58 16 -60
-61 -27 -88 37 -240 88 -249 82 -13 -7 -20 -74 -10 -92 6 -11 77 -48 168 -87
87 -38 161 -71 164 -74 4 -3 9 -22 12 -42 l5 -36 -149 59 c-81 32 -157 58
-168 58 -13 0 -23 -11 -31 -35 -14 -42 -2 -69 37 -83 16 -5 94 -37 175 -72
l148 -62 20 -67 c11 -38 20 -71 20 -74 0 -3 -40 8 -90 23 -58 18 -90 24 -89
16 1 -21 44 -99 59 -107 8 -5 40 -20 71 -34 68 -30 67 -29 75 -235 l6 -145
-50 112 c-155 349 -298 544 -450 616 -65 31 -71 32 -202 31 -188 0 -411 -46
-697 -144 -124 -42 -143 -46 -147 -32 -27 91 -102 558 -130 812 -22 193 -48
619 -44 725 3 86 4 89 28 96 32 8 127 2 260 -18z m-428 -33 c5 -25 35 -337 68
-695 33 -357 67 -686 75 -730 8 -44 17 -116 21 -160 l6 -80 -53 -30 c-75 -40
-183 -47 -257 -15 -29 12 -52 27 -52 33 0 5 9 80 20 166 27 209 38 353 33 426
-2 33 -17 262 -33 508 -30 452 -36 608 -23 621 4 4 48 5 97 4 l91 -3 7 -45z
m-342 18 c0 -13 5 -86 10 -163 13 -186 37 -600 50 -860 9 -179 9 -231 -5 -350
-16 -137 -40 -284 -49 -292 -2 -2 -35 11 -73 31 -99 50 -262 101 -381 121
-150 25 -345 17 -466 -19 -356 -107 -650 -382 -766 -720 l-17 -51 -8 110 c-15
219 11 617 56 853 59 309 212 577 487 855 117 119 212 197 350 288 85 57 125
75 240 113 184 60 390 101 525 105 42 1 47 -1 47 -21z m1543 -1635 c86 -27
181 -114 272 -248 59 -88 200 -374 300 -610 209 -492 729 -1774 722 -1781 -2
-2 -124 258 -272 579 -650 1409 -745 1593 -894 1729 -90 82 -177 115 -331 125
-215 13 -788 -76 -890 -139 l-33 -20 7 -261 c11 -436 28 -575 73 -604 76 -50
344 -64 733 -38 467 30 537 43 666 124 36 23 68 41 72 41 5 0 735 -1535 824
-1733 17 -38 16 -37 -58 32 -89 83 -221 191 -234 191 -12 0 -17 -10 -25 -51
l-7 -35 227 -209 c237 -218 301 -295 370 -440 l27 -59 -26 -23 c-15 -13 -31
-23 -35 -23 -5 0 -110 114 -234 253 -296 332 -349 387 -369 387 -18 0 -48 -36
-48 -56 0 -7 64 -81 143 -166 300 -323 415 -454 406 -462 -6 -5 -108 -56 -112
-56 -3 0 -85 91 -184 203 -99 111 -209 234 -245 272 l-66 70 -22 -20 c-12 -11
-26 -31 -31 -44 -9 -22 4 -38 149 -185 176 -179 294 -314 286 -327 -3 -5 -28
-15 -56 -24 l-50 -15 -195 200 c-107 110 -202 200 -211 200 -19 0 -52 -29 -52
-45 0 -6 79 -93 175 -194 96 -100 175 -186 175 -191 0 -9 -84 -40 -110 -40 -9
0 -55 42 -103 94 -48 52 -112 116 -142 142 -50 42 -58 46 -80 36 -13 -6 -29
-21 -35 -33 -11 -20 -2 -32 121 -150 74 -71 127 -129 119 -129 -8 -1 -34 -5
-57 -9 l-43 -8 -115 108 c-77 74 -122 109 -138 109 -25 0 -67 -26 -67 -41 0
-6 39 -53 88 -105 48 -52 88 -99 90 -104 5 -14 -27 -24 -164 -55 -397 -89
-1029 -132 -1684 -114 -539 14 -997 65 -1309 144 -158 40 -181 51 -251 119
-76 74 -204 186 -313 275 -70 57 -81 62 -102 53 -13 -6 -32 -23 -42 -38 l-17
-27 49 -41 c77 -64 266 -238 263 -241 -2 -2 -86 18 -186 45 -101 27 -240 61
-309 75 -114 24 -203 51 -203 61 0 13 343 826 480 1139 133 304 192 425 202
419 17 -11 127 -265 323 -744 127 -313 132 -329 137 -410 5 -100 37 -170 101
-225 73 -63 229 -78 342 -34 l60 24 865 0 c803 -1 868 -2 910 -18 152 -60 292
-14 358 118 44 89 65 210 43 253 -5 12 10 68 50 182 108 304 308 904 333 998
l25 93 -35 15 c-40 17 -156 35 -165 25 -4 -3 -39 -125 -79 -271 -155 -573
-235 -839 -256 -847 -8 -3 -44 2 -82 11 -37 9 -91 19 -120 21 l-53 3 -293 407
-293 408 0 156 c1 176 -12 243 -65 344 -61 113 -161 167 -309 167 -182 0 -291
-89 -340 -276 -17 -66 -20 -102 -17 -227 l3 -149 -37 -12 c-56 -20 -113 -70
-163 -146 -47 -70 -187 -324 -310 -562 l-70 -135 -54 -2 c-35 -1 -81 -12 -136
-35 l-82 -33 -78 186 c-148 352 -274 661 -286 700 -11 36 -9 44 40 145 28 59
59 110 68 113 9 4 102 -3 207 -16 204 -23 316 -27 345 -11 24 12 49 99 32 109
-7 4 -67 13 -134 20 -67 6 -201 20 -297 30 -126 13 -179 15 -188 8 -8 -6 -38
-60 -68 -119 -60 -120 -74 -131 -151 -126 l-42 3 100 230 c55 127 109 252 121
279 l21 48 51 -6 c419 -53 775 -81 916 -73 218 14 367 82 420 192 38 79 70
467 55 678 l-7 107 -111 36 c-248 80 -456 108 -748 102 -164 -4 -203 -8 -251
-26 -122 -44 -182 -105 -253 -254 -85 -180 -323 -783 -773 -1958 -313 -816
-369 -960 -381 -979 -14 -22 -105 5 -96 28 4 9 49 135 100 281 794 2263 814
2316 895 2485 80 166 148 266 249 365 95 94 175 142 301 181 62 20 96 24 200
23 135 -1 155 -5 510 -109 221 -65 320 -86 440 -92 130 -7 158 0 551 143 463
167 608 195 762 147z m-1059 -2155 c-12 -195 -10 -935 2 -948 7 -7 27 -13 45
-13 l34 -2 -3 395 c-1 217 2 413 6 435 l9 40 34 -70 34 -70 0 -362 c0 -241 4
-365 11 -372 5 -6 28 -12 50 -14 l39 -2 5 254 5 254 65 -103 c36 -57 66 -107
68 -111 2 -4 -14 -9 -35 -11 l-38 -3 -3 -70 c-2 -38 0 -89 3 -112 6 -43 6 -43
50 -43 49 0 55 -8 55 -74 l0 -42 -685 1 c-660 0 -685 1 -685 19 0 41 -34 146
-77 237 l-45 97 183 263 c100 145 227 324 281 397 l99 134 67 -6 c37 -3 132
-2 212 3 80 4 162 9 183 9 l38 2 -7 -112z"/>
<path d="M4897 5554 c-11 -12 -8 -59 6 -76 16 -21 143 -70 170 -66 33 5 28 65
-8 94 -37 29 -153 62 -168 48z"/>
<path d="M2214 5833 c-66 -12 -235 -198 -325 -361 -57 -103 -108 -239 -112
-299 -2 -36 1 -39 43 -60 24 -13 59 -23 77 -23 36 0 36 -1 53 113 32 211 131
376 298 494 45 32 62 51 62 67 0 36 -55 75 -96 69z"/>
<path d="M5170 3173 c-19 -2 -78 -10 -130 -18 -52 -8 -194 -22 -314 -30 -154
-10 -222 -18 -228 -27 -9 -15 -2 -73 14 -102 10 -18 20 -19 202 -13 123 4 232
13 306 26 116 21 218 45 227 55 10 10 -8 74 -25 93 -12 13 -28 18 -52 16z"/>
<path d="M4557 2782 c-10 -10 -17 -26 -17 -35 0 -9 38 -56 85 -104 82 -85 85
-87 100 -68 30 39 29 62 -6 107 -87 114 -127 139 -162 100z"/>
<path d="M4382 2640 c-12 -12 -22 -24 -22 -29 0 -22 270 -245 282 -233 5 5 13
23 18 41 9 32 7 36 -52 97 -77 80 -159 144 -185 144 -10 0 -29 -9 -41 -20z"/>
<path d="M4274 2486 c-48 -21 -50 -34 -13 -73 44 -46 272 -243 281 -243 11 0
38 56 38 77 0 10 -24 42 -52 69 -64 62 -209 184 -217 184 -3 -1 -20 -7 -37
-14z"/>
<path d="M1561 1696 c-6 -7 -14 -33 -17 -57 l-5 -44 83 -71 c104 -88 231 -184
245 -184 14 0 23 24 23 61 0 23 -16 45 -72 102 -77 78 -226 207 -238 207 -4 0
-13 -6 -19 -14z"/>
<path d="M1466 1437 c-32 -54 -32 -64 -3 -88 109 -94 413 -319 430 -319 12 0
28 70 20 85 -12 21 -289 263 -405 353 -14 12 -20 8 -42 -31z"/>
<path d="M3344 2033 c4 -319 10 -481 18 -490 6 -7 25 -13 42 -13 63 0 61 -6
59 272 -3 361 -20 690 -36 700 -6 4 -30 8 -51 8 l-39 0 7 -477z"/>
<path d="M3152 2491 c-11 -6 -10 -83 2 -429 9 -231 16 -446 16 -477 l0 -56 53
3 52 3 -2 195 c-3 200 -30 707 -40 748 -4 17 -12 22 -37 22 -17 0 -37 -4 -44
-9z"/>
<path d="M2973 2118 c-20 -10 -23 -18 -23 -77 0 -36 7 -156 15 -266 8 -110 15
-208 15 -218 0 -15 7 -18 43 -15 l42 3 -1 245 c0 135 -4 266 -8 293 -7 43 -10
47 -34 46 -15 0 -37 -5 -49 -11z"/>
<path d="M2785 1918 l-28 -22 6 -174 c4 -96 9 -177 11 -179 2 -3 24 -1 48 4
l43 9 -2 107 c-1 138 -21 277 -38 277 -7 0 -25 -10 -40 -22z"/>
</g>
</svg>
